<svg class="main-svg" xmlns="http://www.w3.org/2000/svg" xmlns:xlink="http://www.w3.org/1999/xlink" width="800" height="800" style="" viewBox="0 0 800 800"><rect x="0" y="0" width="800" height="800" style="fill: rgb(255, 255, 255); fill-opacity: 1;"/><defs id="defs-04775b"><g class="clips"/><g class="gradients"/><g class="patterns"/></defs><g class="bglayer"/><g class="layer-below"><g class="imagelayer"/><g class="shapelayer"/></g><g class="cartesianlayer"/><g class="polarlayer"/><g class="smithlayer"/><g class="ternarylayer"/><g class="geolayer"/><g class="funnelarealayer"/><g class="pielayer"/><g class="iciclelayer"/><g class="treemaplayer"/><g class="sunburstlayer"/><g class="glimages"/><g class="sankey" transform="translate(80,100)matrix(1 0 0 1 0 0)" style="box-sizing: content-box; position: absolute; left: 0px; shape-rendering: geometricprecision; pointer-events: none;"><g class="sankey-links" style="fill: none;"><path class="sankey-link" d="M20,548.599269183922C320,548.599269183922 320,590.8861144945188 620,590.8861144945188L620,594.6498172959805C320,594.6498172959805 320,552.3629719853838 20,552.3629719853838Z" style="stroke: rgb(68, 68, 68); stroke-opacity: 1; fill: rgb(128, 177, 211); fill-opacity: 0.75; stroke-width: 0; opacity: 1;"/><path class="sankey-link" d="M20,531.6626065773448C320,531.6626065773448 320,344.01035322777165 620,344.01035322777165L620,354.6741778319129C320,354.6741778319129 320,542.3264311814862 20,542.3264311814862Z" style="stroke: rgb(68, 68, 68); stroke-opacity: 1; fill: rgb(128, 177, 211); fill-opacity: 0.75; stroke-width: 0; opacity: 1;"/><path class="sankey-link" d="M20,552.3629719853836C320,552.3629719853836 320,617.8045066991473 620,617.8045066991473L620,619.9999999999999C320,619.9999999999999 320,554.5584652862362 20,554.5584652862362Z" style="stroke: rgb(68, 68, 68); stroke-opacity: 1; fill: rgb(128, 177, 211); fill-opacity: 0.75; stroke-width: 0; opacity: 1;"/><path class="sankey-link" d="M20,542.3264311814861C320,542.3264311814861 320,425.81607795371565 620,425.81607795371565L620,426.1297198538374C320,426.1297198538374 320,542.640073081608 20,542.640073081608Z" style="stroke: rgb(128, 177, 211); stroke-opacity: 0.75; fill: rgb(128, 177, 211); fill-opacity: 0.75; stroke-width: 1; opacity: 1;"/><path class="sankey-link" d="M20,542.6400730816079C320,542.6400730816079 320,484.0438489646779 620,484.0438489646779L620,487.8075517661395C320,487.8075517661395 320,546.4037758830696 20,546.4037758830696Z" style="stroke: rgb(68, 68, 68); stroke-opacity: 1; fill: rgb(128, 177, 211); fill-opacity: 0.75; stroke-width: 0; opacity: 1;"/><path class="sankey-link" d="M20,546.4037758830694C320,546.4037758830694 320,538.5627283800244 620,538.5627283800244L620,540.758221680877C320,540.758221680877 320,548.599269183922 20,548.599269183922Z" style="stroke: rgb(68, 68, 68); stroke-opacity: 1; fill: rgb(128, 177, 211); fill-opacity: 0.75; stroke-width: 0; opacity: 1;"/><path class="sankey-link" d="M20,495.6485992691841C320,495.6485992691841 320,574.2630937880632 620,574.2630937880632L620,590.8861144945187C320,590.8861144945187 320,512.2716199756396 20,512.2716199756396Z" style="stroke: rgb(68, 68, 68); stroke-opacity: 1; fill: rgb(190, 186, 218); fill-opacity: 0.75; stroke-width: 0; opacity: 1;"/><path class="sankey-link" d="M20,449.8568818514009C320,449.8568818514009 320,309.19610231425156 620,309.19610231425156L620,344.0103532277717C320,344.0103532277717 320,484.671132764921 20,484.671132764921Z" style="stroke: rgb(68, 68, 68); stroke-opacity: 1; fill: rgb(190, 186, 218); fill-opacity: 0.75; stroke-width: 0; opacity: 1;"/><path class="sankey-link" d="M20,512.2716199756396C320,512.2716199756396 320,613.4135200974421 620,613.4135200974421L620,617.8045066991473C320,617.8045066991473 320,516.6626065773448 20,516.6626065773448Z" style="stroke: rgb(68, 68, 68); stroke-opacity: 1; fill: rgb(190, 186, 218); fill-opacity: 0.75; stroke-width: 0; opacity: 1;"/><path class="sankey-link" d="M20,485.9257003654082C320,485.9257003654082 320,453.36175395858777 620,453.36175395858777L620,453.9890377588314C320,453.9890377588314 320,486.5529841656518 20,486.5529841656518Z" style="stroke: rgb(190, 186, 218); stroke-opacity: 0.75; fill: rgb(190, 186, 218); fill-opacity: 0.75; stroke-width: 1; opacity: 1;"/><path class="sankey-link" d="M20,484.67113276492097C320,484.67113276492097 320,424.5615103532284 620,424.5615103532284L620,425.81607795371565C320,425.81607795371565 320,485.9257003654082 20,485.9257003654082Z" style="stroke: rgb(68, 68, 68); stroke-opacity: 1; fill: rgb(190, 186, 218); fill-opacity: 0.75; stroke-width: 0; opacity: 1;"/><path class="sankey-link" d="M20,486.5529841656518C320,486.5529841656518 320,482.7892813641907 620,482.7892813641907L620,484.0438489646779C320,484.0438489646779 320,487.80755176613906 20,487.80755176613906Z" style="stroke: rgb(68, 68, 68); stroke-opacity: 1; fill: rgb(190, 186, 218); fill-opacity: 0.75; stroke-width: 0; opacity: 1;"/><path class="sankey-link" d="M20,487.80755176613906C320,487.80755176613906 320,530.7216808769793 620,530.7216808769793L620,538.5627283800244C320,538.5627283800244 320,495.6485992691841 20,495.6485992691841Z" style="stroke: rgb(68, 68, 68); stroke-opacity: 1; fill: rgb(190, 186, 218); fill-opacity: 0.75; stroke-width: 0; opacity: 1;"/><path class="sankey-link" d="M20,196.02618757612697C320,196.02618757612697 320,567.3629719853836 620,567.3629719853836L620,568.303897685749C320,568.303897685749 320,196.9671132764924 20,196.9671132764924Z" style="stroke: rgb(255, 255, 179); stroke-opacity: 0.75; fill: rgb(255, 255, 179); fill-opacity: 0.75; stroke-width: 1; opacity: 1;"/><path class="sankey-link" d="M20,3.552713678800501e-13C320,3.552713678800501e-13 320,15.000000000000668 620,15.000000000000668L620,188.75761266747935C320,188.75761266747935 320,173.757612667479 20,173.757612667479Z" style="stroke: rgb(68, 68, 68); stroke-opacity: 1; fill: rgb(255, 255, 179); fill-opacity: 0.75; stroke-width: 0; opacity: 1;"/><path class="sankey-link" d="M20,196.96711327649237C320,196.96711327649237 320,611.8453105968331 620,611.8453105968331L620,612.4725943970766C320,612.4725943970766 320,197.594397076736 20,197.594397076736Z" style="stroke: rgb(255, 255, 179); stroke-opacity: 0.75; fill: rgb(255, 255, 179); fill-opacity: 0.75; stroke-width: 1; opacity: 1;"/><path class="sankey-link" d="M20,190.06699147381275C320,190.06699147381275 320,446.7752740560299 620,446.7752740560299L620,447.71619975639527C320,447.71619975639527 320,191.00791717417817 20,191.00791717417817Z" style="stroke: rgb(255, 255, 179); stroke-opacity: 0.75; fill: rgb(255, 255, 179); fill-opacity: 0.75; stroke-width: 1; opacity: 1;"/><path class="sankey-link" d="M20,173.757612667479C320,173.757612667479 320,377.8288672350798 620,377.8288672350798L620,394.13824604141354C320,394.13824604141354 320,190.06699147381272 20,190.06699147381272Z" style="stroke: rgb(68, 68, 68); stroke-opacity: 1; fill: rgb(255, 255, 179); fill-opacity: 0.75; stroke-width: 0; opacity: 1;"/><path class="sankey-link" d="M20,191.00791717417815C320,191.00791717417815 320,469.61632155907495 620,469.61632155907495L620,470.5572472594403C320,470.5572472594403 320,191.94884287454357 20,191.94884287454357Z" style="stroke: rgb(255, 255, 179); stroke-opacity: 0.75; fill: rgb(255, 255, 179); fill-opacity: 0.75; stroke-width: 1; opacity: 1;"/><path class="sankey-link" d="M20,191.94884287454354C320,191.94884287454354 320,510.0213154689404 620,510.0213154689404L620,514.0986601705238C320,514.0986601705238 320,196.026187576127 20,196.026187576127Z" style="stroke: rgb(68, 68, 68); stroke-opacity: 1; fill: rgb(255, 255, 179); fill-opacity: 0.75; stroke-width: 0; opacity: 1;"/><path class="sankey-link" d="M20,569.5584652862365C320,569.5584652862365 320,354.6741778319129 620,354.6741778319129L620,355.30146163215653C320,355.30146163215653 320,570.18574908648 20,570.18574908648Z" style="stroke: rgb(252, 205, 229); stroke-opacity: 0.75; fill: rgb(252, 205, 229); fill-opacity: 0.75; stroke-width: 1; opacity: 1;"/><path class="sankey-link" d="M20,570.1857490864801C320,570.1857490864801 320,426.12971985383746 620,426.12971985383746L620,426.7570036540811C320,426.7570036540811 320,570.8130328867236 20,570.8130328867236Z" style="stroke: rgb(252, 205, 229); stroke-opacity: 0.75; fill: rgb(252, 205, 229); fill-opacity: 0.75; stroke-width: 1; opacity: 1;"/><path class="sankey-link" d="M20,570.8130328867237C320,570.8130328867237 320,487.80755176613957 620,487.80755176613957L620,488.4348355663832C320,488.4348355663832 320,571.4403166869672 20,571.4403166869672Z" style="stroke: rgb(252, 205, 229); stroke-opacity: 0.75; fill: rgb(252, 205, 229); fill-opacity: 0.75; stroke-width: 1; opacity: 1;"/><path class="sankey-link" d="M20,571.4403166869673C320,571.4403166869673 320,540.758221680877 620,540.758221680877L620,541.0718635809989C320,541.0718635809989 320,571.7539585870892 20,571.7539585870892Z" style="stroke: rgb(252, 205, 229); stroke-opacity: 0.75; fill: rgb(252, 205, 229); fill-opacity: 0.75; stroke-width: 1; opacity: 1;"/><path class="sankey-link" d="M20,617.8045066991475C320,617.8045066991475 320,594.6498172959804 620,594.6498172959804L620,596.845310596833C320,596.845310596833 320,620.0000000000001 20,620.0000000000001Z" style="stroke: rgb(68, 68, 68); stroke-opacity: 1; fill: rgb(179, 222, 105); fill-opacity: 0.75; stroke-width: 0; opacity: 1;"/><path class="sankey-link" d="M20,586.7539585870891C320,586.7539585870891 320,355.30146163215653 620,355.30146163215653L620,362.8288672350798C320,362.8288672350798 320,594.2813641900123 20,594.2813641900123Z" style="stroke: rgb(68, 68, 68); stroke-opacity: 1; fill: rgb(179, 222, 105); fill-opacity: 0.75; stroke-width: 0; opacity: 1;"/><path class="sankey-link" d="M20,599.2996345919612C320,599.2996345919612 320,453.9890377588314 620,453.9890377588314L620,454.616321559075C320,454.616321559075 320,599.9269183922047 20,599.9269183922047Z" style="stroke: rgb(179, 222, 105); stroke-opacity: 0.75; fill: rgb(179, 222, 105); fill-opacity: 0.75; stroke-width: 1; opacity: 1;"/><path class="sankey-link" d="M20,594.2813641900124C320,594.2813641900124 320,426.7570036540811 620,426.7570036540811L620,431.7752740560299C320,431.7752740560299 320,599.2996345919613 20,599.2996345919613Z" style="stroke: rgb(68, 68, 68); stroke-opacity: 1; fill: rgb(179, 222, 105); fill-opacity: 0.75; stroke-width: 0; opacity: 1;"/><path class="sankey-link" d="M20,599.9269183922048C320,599.9269183922048 320,488.4348355663832 620,488.4348355663832L620,495.021315468941C320,495.021315468941 320,606.5133982947626 20,606.5133982947626Z" style="stroke: rgb(68, 68, 68); stroke-opacity: 1; fill: rgb(179, 222, 105); fill-opacity: 0.75; stroke-width: 0; opacity: 1;"/><path class="sankey-link" d="M20,606.5133982947626C320,606.5133982947626 320,541.0718635809988 620,541.0718635809988L620,552.3629719853836C320,552.3629719853836 320,617.8045066991475 20,617.8045066991475Z" style="stroke: rgb(68, 68, 68); stroke-opacity: 1; fill: rgb(179, 222, 105); fill-opacity: 0.75; stroke-width: 0; opacity: 1;"/><path class="sankey-link" d="M20,430.4658952496958C320,430.4658952496958 320,570.4993909866016 620,570.4993909866016L620,574.2630937880633C320,574.2630937880633 320,434.2295980511574 20,434.2295980511574Z" style="stroke: rgb(68, 68, 68); stroke-opacity: 1; fill: rgb(251, 128, 114); fill-opacity: 0.75; stroke-width: 0; opacity: 1;"/><path class="sankey-link" d="M20,343.58708891595643C320,343.58708891595643 320,262.14981729598117 620,262.14981729598117L620,309.19610231425156C320,309.19610231425156 320,390.6333739342268 20,390.6333739342268Z" style="stroke: rgb(68, 68, 68); stroke-opacity: 1; fill: rgb(251, 128, 114); fill-opacity: 0.75; stroke-width: 0; opacity: 1;"/><path class="sankey-link" d="M20,434.22959805115744C320,434.22959805115744 320,612.7862362971985 620,612.7862362971985L620,613.413520097442C320,613.413520097442 320,434.85688185140106 20,434.85688185140106Z" style="stroke: rgb(251, 128, 114); stroke-opacity: 0.75; fill: rgb(251, 128, 114); fill-opacity: 0.75; stroke-width: 1; opacity: 1;"/><path class="sankey-link" d="M20,412.2746650426312C320,412.2746650426312 320,448.02984165651714 620,448.02984165651714L620,453.3617539585878C320,453.3617539585878 320,417.6065773447019 20,417.6065773447019Z" style="stroke: rgb(68, 68, 68); stroke-opacity: 1; fill: rgb(251, 128, 114); fill-opacity: 0.75; stroke-width: 0; opacity: 1;"/><path class="sankey-link" d="M20,390.6333739342268C320,390.6333739342268 320,402.920219244824 620,402.920219244824L620,424.5615103532284C320,424.5615103532284 320,412.2746650426312 20,412.2746650426312Z" style="stroke: rgb(68, 68, 68); stroke-opacity: 1; fill: rgb(251, 128, 114); fill-opacity: 0.75; stroke-width: 0; opacity: 1;"/><path class="sankey-link" d="M20,417.60657734470186C320,417.60657734470186 320,479.96650426309446 620,479.96650426309446L620,482.7892813641907C320,482.7892813641907 320,420.4293544457981 20,420.4293544457981Z" style="stroke: rgb(68, 68, 68); stroke-opacity: 1; fill: rgb(251, 128, 114); fill-opacity: 0.75; stroke-width: 0; opacity: 1;"/><path class="sankey-link" d="M20,420.4293544457981C320,420.4293544457981 320,520.6851400730817 620,520.6851400730817L620,530.7216808769793C320,530.7216808769793 320,430.46589524969573 20,430.46589524969573Z" style="stroke: rgb(68, 68, 68); stroke-opacity: 1; fill: rgb(251, 128, 114); fill-opacity: 0.75; stroke-width: 0; opacity: 1;"/><path class="sankey-link" d="M20,327.95980511571287C320,327.95980511571287 320,569.872107186358 620,569.872107186358L620,570.4993909866015C320,570.4993909866015 320,328.5870889159565 20,328.5870889159565Z" style="stroke: rgb(253, 180, 98); stroke-opacity: 0.75; fill: rgb(253, 180, 98); fill-opacity: 0.75; stroke-width: 1; opacity: 1;"/><path class="sankey-link" d="M20,291.26370280146193C320,291.26370280146193 320,238.31303288672416 620,238.31303288672416L620,262.14981729598117C320,262.14981729598117 320,315.10048721071894 20,315.10048721071894Z" style="stroke: rgb(68, 68, 68); stroke-opacity: 1; fill: rgb(253, 180, 98); fill-opacity: 0.75; stroke-width: 0; opacity: 1;"/><path class="sankey-link" d="M20,315.10048721071894C320,315.10048721071894 320,396.64738124238795 620,396.64738124238795L620,402.920219244824C320,402.920219244824 320,321.373325213155 20,321.373325213155Z" style="stroke: rgb(68, 68, 68); stroke-opacity: 1; fill: rgb(253, 180, 98); fill-opacity: 0.75; stroke-width: 0; opacity: 1;"/><path class="sankey-link" d="M20,321.373325213155C320,321.373325213155 320,479.02557856272904 620,479.02557856272904L620,479.9665042630944C320,479.9665042630944 320,322.31425091352037 20,322.31425091352037Z" style="stroke: rgb(253, 180, 98); stroke-opacity: 0.75; fill: rgb(253, 180, 98); fill-opacity: 0.75; stroke-width: 1; opacity: 1;"/><path class="sankey-link" d="M20,322.3142509135204C320,322.3142509135204 320,515.0395858708893 620,515.0395858708893L620,520.6851400730817C320,520.6851400730817 320,327.95980511571287 20,327.95980511571287Z" style="stroke: rgb(68, 68, 68); stroke-opacity: 1; fill: rgb(253, 180, 98); fill-opacity: 0.75; stroke-width: 0; opacity: 1;"/><path class="sankey-link" d="M20,274.38185140073114C320,274.38185140073114 320,568.303897685749 620,568.303897685749L620,569.8721071863581C320,569.8721071863581 320,275.9500609013401 20,275.9500609013401Z" style="stroke: rgb(68, 68, 68); stroke-opacity: 1; fill: rgb(141, 211, 199); fill-opacity: 0.75; stroke-width: 0; opacity: 1;"/><path class="sankey-link" d="M20,212.59439707673602C320,212.59439707673602 320,188.75761266747935 620,188.75761266747935L620,238.31303288672416C320,238.31303288672416 320,262.1498172959808 20,262.1498172959808Z" style="stroke: rgb(68, 68, 68); stroke-opacity: 1; fill: rgb(141, 211, 199); fill-opacity: 0.75; stroke-width: 0; opacity: 1;"/><path class="sankey-link" d="M20,275.9500609013401C320,275.9500609013401 320,612.4725943970767 620,612.4725943970767L620,612.7862362971986C320,612.7862362971986 320,276.2637028014619 20,276.2637028014619Z" style="stroke: rgb(141, 211, 199); stroke-opacity: 0.75; fill: rgb(141, 211, 199); fill-opacity: 0.75; stroke-width: 1; opacity: 1;"/><path class="sankey-link" d="M20,264.65895249695524C320,264.65895249695524 320,447.7161997563953 620,447.7161997563953L620,448.0298416565171C320,448.0298416565171 320,264.972594397077 20,264.972594397077Z" style="stroke: rgb(141, 211, 199); stroke-opacity: 0.75; fill: rgb(141, 211, 199); fill-opacity: 0.75; stroke-width: 1; opacity: 1;"/><path class="sankey-link" d="M20,262.1498172959808C320,262.1498172959808 320,394.13824604141354 620,394.13824604141354L620,396.647381242388C320,396.647381242388 320,264.6589524969553 20,264.6589524969553Z" style="stroke: rgb(68, 68, 68); stroke-opacity: 1; fill: rgb(141, 211, 199); fill-opacity: 0.75; stroke-width: 0; opacity: 1;"/><path class="sankey-link" d="M20,264.97259439707705C320,264.97259439707705 320,470.5572472594404 620,470.5572472594404L620,479.02557856272904C320,479.02557856272904 320,273.4409257003657 20,273.4409257003657Z" style="stroke: rgb(68, 68, 68); stroke-opacity: 1; fill: rgb(141, 211, 199); fill-opacity: 0.75; stroke-width: 0; opacity: 1;"/><path class="sankey-link" d="M20,273.4409257003657C320,273.4409257003657 320,514.0986601705239 620,514.0986601705239L620,515.0395858708893C320,515.0395858708893 320,274.3818514007311 20,274.3818514007311Z" style="stroke: rgb(141, 211, 199); stroke-opacity: 0.75; fill: rgb(141, 211, 199); fill-opacity: 0.75; stroke-width: 1; opacity: 1;"/></g><g class="sankey-node-set" style="cursor: move;"><g class="sankey-node" transform="translate(0.000,212.594)" style="opacity: 1;"><rect class="node-rect" width="20" height="63.669305724725916" style="stroke-width: 0.5; stroke: rgb(0, 0, 0); stroke-opacity: 1; fill: rgb(99, 110, 250); fill-opacity: 0.8;"/><text class="node-label" data-notex="1" x="0" y="0" text-anchor="start" transform="translate(23.25,36.384652862362955)" style="cursor: default; font-family: 'Open Sans', verdana, arial, sans-serif; font-size: 13px; fill: rgb(42, 63, 95); fill-opacity: 1; text-shadow: rgb(255, 255, 255) 1px 1px 1px, rgb(255, 255, 255) -1px -1px 1px, rgb(255, 255, 255) 1px -1px 1px, rgb(255, 255, 255) -1px 1px 1px; white-space: pre;">Video</text></g><g class="sankey-node" transform="translate(0.000,0.000)" style="opacity: 1;"><rect class="node-rect" width="20" height="197.59439707673567" style="stroke-width: 0.5; stroke: rgb(0, 0, 0); stroke-opacity: 1; fill: rgb(239, 85, 59); fill-opacity: 0.8;"/><text class="node-label" data-notex="1" x="0" y="0" text-anchor="start" transform="translate(23.25,103.34719853836783)" style="cursor: default; font-family: 'Open Sans', verdana, arial, sans-serif; font-size: 13px; fill: rgb(42, 63, 95); fill-opacity: 1; text-shadow: rgb(255, 255, 255) 1px 1px 1px, rgb(255, 255, 255) -1px -1px 1px, rgb(255, 255, 255) 1px -1px 1px, rgb(255, 255, 255) -1px 1px 1px; white-space: pre;">Image</text></g><g class="sankey-node" transform="translate(0.000,449.857)" style="opacity: 1;"><rect class="node-rect" width="20" height="66.80572472594395" style="stroke-width: 0.5; stroke: rgb(0, 0, 0); stroke-opacity: 1; fill: rgb(0, 204, 150); fill-opacity: 0.8;"/><text class="node-label" data-notex="1" x="0" y="0" text-anchor="start" transform="translate(23.25,37.95286236297197)" style="cursor: default; font-family: 'Open Sans', verdana, arial, sans-serif; font-size: 13px; fill: rgb(42, 63, 95); fill-opacity: 1; text-shadow: rgb(255, 255, 255) 1px 1px 1px, rgb(255, 255, 255) -1px -1px 1px, rgb(255, 255, 255) 1px -1px 1px, rgb(255, 255, 255) -1px 1px 1px; white-space: pre;">Free Text</text></g><g class="sankey-node" transform="translate(0.000,343.587)" style="opacity: 1;"><rect class="node-rect" width="20" height="91.26979293544446" style="stroke-width: 0.5; stroke: rgb(0, 0, 0); stroke-opacity: 1; fill: rgb(171, 99, 250); fill-opacity: 0.8;"/><text class="node-label" data-notex="1" x="0" y="0" text-anchor="start" transform="translate(23.25,50.184896467722226)" style="cursor: default; font-family: 'Open Sans', verdana, arial, sans-serif; font-size: 13px; fill: rgb(42, 63, 95); fill-opacity: 1; text-shadow: rgb(255, 255, 255) 1px 1px 1px, rgb(255, 255, 255) -1px -1px 1px, rgb(255, 255, 255) 1px -1px 1px, rgb(255, 255, 255) -1px 1px 1px; white-space: pre;">Structured Data</text></g><g class="sankey-node" transform="translate(0.000,531.663)" style="opacity: 1;"><rect class="node-rect" width="20" height="22.895858708891637" style="stroke-width: 0.5; stroke: rgb(0, 0, 0); stroke-opacity: 1; fill: rgb(255, 161, 90); fill-opacity: 0.8;"/><text class="node-label" data-notex="1" x="0" y="0" text-anchor="start" transform="translate(23.25,15.99792935444582)" style="cursor: default; font-family: 'Open Sans', verdana, arial, sans-serif; font-size: 13px; fill: rgb(42, 63, 95); fill-opacity: 1; text-shadow: rgb(255, 255, 255) 1px 1px 1px, rgb(255, 255, 255) -1px -1px 1px, rgb(255, 255, 255) 1px -1px 1px, rgb(255, 255, 255) -1px 1px 1px; white-space: pre;">Audio</text></g><g class="sankey-node" transform="translate(0.000,291.264)" style="opacity: 1;"><rect class="node-rect" width="20" height="37.3233861144945" style="stroke-width: 0.5; stroke: rgb(0, 0, 0); stroke-opacity: 1; fill: rgb(25, 211, 243); fill-opacity: 0.8;"/><text class="node-label" data-notex="1" x="0" y="0" text-anchor="start" transform="translate(23.25,23.21169305724725)" style="cursor: default; font-family: 'Open Sans', verdana, arial, sans-serif; font-size: 13px; fill: rgb(42, 63, 95); fill-opacity: 1; text-shadow: rgb(255, 255, 255) 1px 1px 1px, rgb(255, 255, 255) -1px -1px 1px, rgb(255, 255, 255) 1px -1px 1px, rgb(255, 255, 255) -1px 1px 1px; white-space: pre;">Time Series</text></g><g class="sankey-node" transform="translate(0.000,586.754)" style="opacity: 1;"><rect class="node-rect" width="20" height="33.24604141291093" style="stroke-width: 0.5; stroke: rgb(0, 0, 0); stroke-opacity: 1; fill: rgb(255, 102, 146); fill-opacity: 0.8;"/><text class="node-label" data-notex="1" x="0" y="0" text-anchor="start" transform="translate(23.25,21.173020706455464)" style="cursor: default; font-family: 'Open Sans', verdana, arial, sans-serif; font-size: 13px; fill: rgb(42, 63, 95); fill-opacity: 1; text-shadow: rgb(255, 255, 255) 1px 1px 1px, rgb(255, 255, 255) -1px -1px 1px, rgb(255, 255, 255) 1px -1px 1px, rgb(255, 255, 255) -1px 1px 1px; white-space: pre;">Sensor Data</text></g><g class="sankey-node" transform="translate(0.000,569.558)" style="opacity: 1;"><rect class="node-rect" width="20" height="2.195493300852604" style="stroke-width: 0.5; stroke: rgb(0, 0, 0); stroke-opacity: 1; fill: rgb(182, 232, 128); fill-opacity: 0.8;"/><text class="node-label" data-notex="1" x="0" y="0" text-anchor="start" transform="translate(23.25,5.647746650426302)" style="cursor: default; font-family: 'Open Sans', verdana, arial, sans-serif; font-size: 13px; fill: rgb(42, 63, 95); fill-opacity: 1; text-shadow: rgb(255, 255, 255) 1px 1px 1px, rgb(255, 255, 255) -1px -1px 1px, rgb(255, 255, 255) 1px -1px 1px, rgb(255, 255, 255) -1px 1px 1px; white-space: pre;">Other Data Modality</text></g><g class="sankey-node" transform="translate(620.000,15.000)" style="opacity: 1;"><rect class="node-rect" width="20" height="347.82886723507914" style="stroke-width: 0.5; stroke: rgb(0, 0, 0); stroke-opacity: 1; fill: rgb(255, 151, 255); fill-opacity: 0.8;"/><text class="node-label" data-notex="1" x="0" y="0" text-anchor="end" transform="translate(-3.25,178.46443361753958)" style="cursor: default; font-family: 'Open Sans', verdana, arial, sans-serif; font-size: 13px; fill: rgb(42, 63, 95); fill-opacity: 1; text-shadow: rgb(255, 255, 255) 1px 1px 1px, rgb(255, 255, 255) -1px -1px 1px, rgb(255, 255, 255) 1px -1px 1px, rgb(255, 255, 255) -1px 1px 1px; white-space: pre;">Clinical Decision Support Systems</text></g><g class="sankey-node" transform="translate(620.000,469.616)" style="opacity: 1;"><rect class="node-rect" width="20" height="25.404993909865482" style="stroke-width: 0.5; stroke: rgb(0, 0, 0); stroke-opacity: 1; fill: rgb(254, 203, 82); fill-opacity: 0.8;"/><text class="node-label" data-notex="1" x="0" y="0" text-anchor="end" transform="translate(-3.25,17.25249695493274)" style="cursor: default; font-family: 'Open Sans', verdana, arial, sans-serif; font-size: 13px; fill: rgb(42, 63, 95); fill-opacity: 1; text-shadow: rgb(255, 255, 255) 1px 1px 1px, rgb(255, 255, 255) -1px -1px 1px, rgb(255, 255, 255) 1px -1px 1px, rgb(255, 255, 255) -1px 1px 1px; white-space: pre;">Rehabilitation &amp; Assistive Technologies</text></g><g class="sankey-node" transform="translate(620.000,567.363)" style="opacity: 1;"><rect class="node-rect" width="20" height="29.48233861144945" style="stroke-width: 0.5; stroke: rgb(0, 0, 0); stroke-opacity: 1; fill: rgb(99, 110, 250); fill-opacity: 0.8;"/><text class="node-label" data-notex="1" x="0" y="0" text-anchor="end" transform="translate(-3.25,19.291169305724726)" style="cursor: default; font-family: 'Open Sans', verdana, arial, sans-serif; font-size: 13px; fill: rgb(42, 63, 95); fill-opacity: 1; text-shadow: rgb(255, 255, 255) 1px 1px 1px, rgb(255, 255, 255) -1px -1px 1px, rgb(255, 255, 255) 1px -1px 1px, rgb(255, 255, 255) -1px 1px 1px; white-space: pre;">Behavioral &amp; Mental Health Analytics</text></g><g class="sankey-node" transform="translate(620.000,510.021)" style="opacity: 1;"><rect class="node-rect" width="20" height="42.34165651644321" style="stroke-width: 0.5; stroke: rgb(0, 0, 0); stroke-opacity: 1; fill: rgb(239, 85, 59); fill-opacity: 0.8;"/><text class="node-label" data-notex="1" x="0" y="0" text-anchor="end" transform="translate(-3.25,25.720828258221605)" style="cursor: default; font-family: 'Open Sans', verdana, arial, sans-serif; font-size: 13px; fill: rgb(42, 63, 95); fill-opacity: 1; text-shadow: rgb(255, 255, 255) 1px 1px 1px, rgb(255, 255, 255) -1px -1px 1px, rgb(255, 255, 255) 1px -1px 1px, rgb(255, 255, 255) -1px 1px 1px; white-space: pre;">Telemedicine &amp; Remote Monitoring</text></g><g class="sankey-node" transform="translate(620.000,611.845)" style="opacity: 1;"><rect class="node-rect" width="20" height="8.154689403166913" style="stroke-width: 0.5; stroke: rgb(0, 0, 0); stroke-opacity: 1; fill: rgb(0, 204, 150); fill-opacity: 0.8;"/><text class="node-label" data-notex="1" x="0" y="0" text-anchor="end" transform="translate(-3.25,8.627344701583457)" style="cursor: default; font-family: 'Open Sans', verdana, arial, sans-serif; font-size: 13px; fill: rgb(42, 63, 95); fill-opacity: 1; text-shadow: rgb(255, 255, 255) 1px 1px 1px, rgb(255, 255, 255) -1px -1px 1px, rgb(255, 255, 255) 1px -1px 1px, rgb(255, 255, 255) -1px 1px 1px; white-space: pre;">Other Applications</text></g><g class="sankey-node" transform="translate(620.000,377.829)" style="opacity: 1;"><rect class="node-rect" width="20" height="53.946406820950074" style="stroke-width: 0.5; stroke: rgb(0, 0, 0); stroke-opacity: 1; fill: rgb(171, 99, 250); fill-opacity: 0.8;"/><text class="node-label" data-notex="1" x="0" y="0" text-anchor="end" transform="translate(-3.25,31.523203410475038)" style="cursor: default; font-family: 'Open Sans', verdana, arial, sans-serif; font-size: 13px; fill: rgb(42, 63, 95); fill-opacity: 1; text-shadow: rgb(255, 255, 255) 1px 1px 1px, rgb(255, 255, 255) -1px -1px 1px, rgb(255, 255, 255) 1px -1px 1px, rgb(255, 255, 255) -1px 1px 1px; white-space: pre;">Predictive Health Modeling</text></g><g class="sankey-node" transform="translate(620.000,446.775)" style="opacity: 1;"><rect class="node-rect" width="20" height="7.841047503045047" style="stroke-width: 0.5; stroke: rgb(0, 0, 0); stroke-opacity: 1; fill: rgb(255, 161, 90); fill-opacity: 0.8;"/><text class="node-label" data-notex="1" x="0" y="0" text-anchor="end" transform="translate(-3.25,8.470523751522524)" style="cursor: default; font-family: 'Open Sans', verdana, arial, sans-serif; font-size: 13px; fill: rgb(42, 63, 95); fill-opacity: 1; text-shadow: rgb(255, 255, 255) 1px 1px 1px, rgb(255, 255, 255) -1px -1px 1px, rgb(255, 255, 255) 1px -1px 1px, rgb(255, 255, 255) -1px 1px 1px; white-space: pre;">Personalized Medicine</text></g></g></g><defs id="topdefs-04775b"><g class="clips"/></defs><g class="layer-above"><g class="imagelayer"/><g class="shapelayer"/></g><g class="infolayer"><g class="g-gtitle"/><g class="first-render"/></g></svg>